# xmcd CD database file
#
# Track frame offsets:
#	150
#	22399
#	37509
#	49590
#	65231
#	81189
#	104132
#	120488
#	135349
#	159279
#	170345
#	186705
#
# Disc length: 2605 seconds
#
# Revision: 1
# Processed by: cddbd v1.4PL0 Copyright (c) Steve Scherf et al.
# Submitted via: CDex 1.40Beta9
#
DISCID=a20a2b0c
DTITLE=B.B. King - Paying The Cost To Be The Boss
DYEAR=1900
DGENRE=Blues
TTITLE0=The Thrill Is Gone
TTITLE1=B.B. Boogie
TTITLE2=Paying The Cost To Be The Boss
TTITLE3=How Blue Can You Get
TTITLE4=The Letter 
TTITLE5=Everyday I Have The Blues 
TTITLE6=It's My Own Fault 
TTITLE7=Mr. Pawnbroker 
TTITLE8=You've Done Lost Your Good Thing Now 
TTITLE9=Catfish Blues 
TTITLE10=Bonus 1
TTITLE11=Bonus 2
EXTD=ID3G: 0
EXTT0=
EXTT1=
EXTT2=
EXTT3=
EXTT4=
EXTT5=
EXTT6=
EXTT7=
EXTT8=
EXTT9=
EXTT10=
EXTT11=
PLAYORDER=
